<svg xmlns="http://www.w3.org/2000/svg" xml:space="preserve" width="64" height="64" viewBox="0 0 180 148"><linearGradient id="SVGID_1_" x1="52.389" x2="132.612" y1="134.836" y2="26.387" gradientUnits="userSpaceOnUse"><stop offset="0" stop-color="#f70"/><stop offset=".742" stop-color="#ff3554"/></linearGradient><path fill="url(#SVGID_1_)" d="M139.1 99.9c3.1 0 6.2.6 9 1.6 4.5-5.2 6.9-10.8 6.9-16.7 0-9.6-6.5-18.8-18.2-26C124.2 51.2 107.3 47 89.4 47c-18 0-34.8 4.2-47.4 11.9-11.8 7.2-18.2 16.4-18.2 26 0 5.8 2.4 11.5 6.9 16.7 2.9-1 5.9-1.6 9-1.6 7.1 0 13.7 2.7 18.7 7.8 3.5 3.5 5.8 7.8 7 12.4 7.6 1.8 15.7 2.7 24 2.7s16.5-1 24-2.7c1.1-4.7 3.5-9 7-12.4 5-5.1 11.6-7.9 18.7-7.9zm-49.7-22c-8.1 0-14.7-6.6-14.7-14.7h29.4c0 8.1-6.6 14.7-14.7 14.7z"/><linearGradient id="SVGID_2_" x1="-3.058" x2="77.165" y1="93.82" y2="-14.629" gradientUnits="userSpaceOnUse"><stop offset="0" stop-color="#f70"/><stop offset=".742" stop-color="#ff3554"/></linearGradient><path fill="url(#SVGID_2_)" d="M38.3 52c1.4-.9 2.9-1.7 4.4-2.4h-.1c-3.7-2.8-8.1-4.1-12.4-4.1-6.3 0-12.5 2.8-16.6 8.3L12 55.9l11.7 8.8c3.6-4.7 8.5-9 14.6-12.7z"/><linearGradient id="SVGID_3_" x1="6.471" x2="86.694" y1="100.87" y2="-7.58" gradientUnits="userSpaceOnUse"><stop offset="0" stop-color="#f70"/><stop offset=".742" stop-color="#ff3554"/></linearGradient><path fill="url(#SVGID_3_)" d="M23.8 105.2c-3.9-5-6.4-10.5-7.1-16.3-.2-1.3-.3-2.7-.3-4 0-6.7 2.2-13.2 6.5-19h-1.5C10 65.9.7 75.2.7 86.6v2.9h15.4c-4 3.3-6.6 8-7.3 13.2-.7 5.5.7 10.9 4.1 15.3l1.3 1.7c1.2-4.5 3.5-8.6 6.9-12 .7-.9 1.7-1.7 2.7-2.5z"/><linearGradient id="SVGID_4_" x1="77.084" x2="157.307" y1="153.103" y2="44.654" gradientUnits="userSpaceOnUse"><stop offset="0" stop-color="#f70"/><stop offset=".742" stop-color="#ff3554"/></linearGradient><path fill="url(#SVGID_4_)" d="m155 64.7 11.7-8.8-1.7-2.3c-4.1-5.4-10.3-8.3-16.6-8.3-4.3 0-8.7 1.4-12.4 4.1h-.1c1.5.8 3 1.6 4.4 2.4 6.2 3.9 11.1 8.2 14.7 12.9z"/><linearGradient id="SVGID_5_" x1="101.991" x2="182.214" y1="171.528" y2="63.078" gradientUnits="userSpaceOnUse"><stop offset="0" stop-color="#f70"/><stop offset=".742" stop-color="#ff3554"/></linearGradient><path fill="url(#SVGID_5_)" d="M178.1 86.5c0-11.4-9.3-20.7-20.7-20.7h-1.5c4.2 5.9 6.5 12.3 6.5 19 0 1.4-.1 2.7-.3 4-.8 5.7-3.2 11.2-7.1 16.3 1 .8 2 1.6 2.9 2.5 3.4 3.4 5.7 7.5 6.9 12l1.3-1.7c3.4-4.4 4.8-9.8 4.1-15.3-.7-5.2-3.3-9.8-7.3-13.2h15.4v-2.9z"/><linearGradient id="SVGID_6_" x1="5.989" x2="86.212" y1="100.513" y2="-7.937" gradientUnits="userSpaceOnUse"><stop offset="0" stop-color="#f70"/><stop offset=".742" stop-color="#ff3554"/></linearGradient><path fill="url(#SVGID_6_)" d="M64.4 42.2c11.4 0 20.7-9.3 20.7-20.7C85.1 10.1 75.8.8 64.4.8 53 .8 43.7 10.1 43.7 21.5c0 11.4 9.3 20.7 20.7 20.7zm0-32c.1 0 .1 0 0 0-1.4 1.5-2.3 3.5-2.3 5.7 0 4.4 3.6 8 8 8 2.2 0 4.2-.9 5.7-2.4v.1c0 6.3-5.1 11.4-11.4 11.4C58.1 33 53 27.9 53 21.6c.1-6.4 5.2-11.4 11.4-11.4z"/><linearGradient id="SVGID_7_" x1="38.204" x2="118.427" y1="124.343" y2="15.893" gradientUnits="userSpaceOnUse"><stop offset="0" stop-color="#f70"/><stop offset=".742" stop-color="#ff3554"/></linearGradient><path fill="url(#SVGID_7_)" d="M114.3 42.2c11.4 0 20.7-9.3 20.7-20.7C135 10.1 125.7.8 114.3.8c-11.4 0-20.7 9.3-20.7 20.7 0 11.4 9.2 20.7 20.7 20.7zm0-32c-1.4 1.5-2.3 3.5-2.3 5.7 0 4.4 3.6 8 8 8 2.2 0 4.2-.9 5.7-2.4v.1c0 6.3-5.1 11.4-11.4 11.4-6.3 0-11.4-5.1-11.4-11.4 0-6.4 5.1-11.4 11.4-11.4z"/><linearGradient id="SVGID_8_" x1="39.731" x2="119.954" y1="125.473" y2="17.023" gradientUnits="userSpaceOnUse"><stop offset="0" stop-color="#f70"/><stop offset=".742" stop-color="#ff3554"/></linearGradient><path fill="url(#SVGID_8_)" d="M39.6 105.7c-11.4 0-20.7 9.3-20.7 20.7 0 11.4 9.3 20.7 20.7 20.7 2.4 0 4.7-.4 6.8-1.2l-.6-.6c-6-6-8-13.7-4.5-17.2s11.2-1.5 17.2 4.5l.6.6c.8-2.1 1.2-4.4 1.2-6.8 0-11.4-9.2-20.7-20.7-20.7z"/><linearGradient id="SVGID_9_" x1="104.39" x2="184.613" y1="173.303" y2="64.853" gradientUnits="userSpaceOnUse"><stop offset="0" stop-color="#f70"/><stop offset=".742" stop-color="#ff3554"/></linearGradient><path fill="url(#SVGID_9_)" d="M139.1 105.7c-11.4 0-20.7 9.3-20.7 20.7 0 2.4.4 4.7 1.2 6.8l.6-.6c6-6 13.7-8 17.2-4.5s1.5 11.2-4.5 17.2l-.6.6c2.1.8 4.4 1.2 6.8 1.2 11.4 0 20.7-9.3 20.7-20.7 0-11.4-9.3-20.7-20.7-20.7z"/></svg>
